<svg width="20" height="20" viewBox="0 0 20 20" fill="currentColor" xmlns="http://www.w3.org/2000/svg">
    <g clip-path="url(#clip0_2254_8848)">
        <path d="M10 12.5C8.61929 12.5 7.5 11.3807 7.5 10C7.5 8.61929 8.61929 7.5 10 7.5C11.3807 7.5 12.5 8.61929 12.5 10C12.5 11.3807 11.3807 12.5 10 12.5Z" stroke="white" stroke-width="2" stroke-linecap="round" stroke-linejoin="round" />
        <path d="M3.83342 12.5002C3.94435 12.7515 3.97744 13.0303 3.92842 13.3007C3.8794 13.571 3.75053 13.8204 3.55842 14.0168L3.50842 14.0668C3.35345 14.2216 3.23052 14.4054 3.14665 14.6078C3.06278 14.8101 3.0196 15.027 3.0196 15.246C3.0196 15.465 3.06278 15.6819 3.14665 15.8842C3.23052 16.0866 3.35345 16.2704 3.50842 16.4252C3.6632 16.5801 3.84702 16.7031 4.04935 16.7869C4.25168 16.8708 4.46856 16.914 4.68758 16.914C4.90661 16.914 5.12349 16.8708 5.32582 16.7869C5.52815 16.7031 5.71196 16.5801 5.86675 16.4252L5.91675 16.3752C6.11315 16.183 6.3626 16.0542 6.63293 16.0052C6.90325 15.9561 7.18207 15.9892 7.43342 16.1002C7.67989 16.2058 7.8901 16.3812 8.03816 16.6048C8.18622 16.8283 8.26568 17.0903 8.26675 17.3585V17.5002C8.26675 17.9422 8.44234 18.3661 8.7549 18.6787C9.06747 18.9912 9.49139 19.1668 9.93342 19.1668C10.3754 19.1668 10.7994 18.9912 11.1119 18.6787C11.4245 18.3661 11.6001 17.9422 11.6001 17.5002V17.4252C11.6065 17.1493 11.6958 16.8818 11.8563 16.6574C12.0168 16.433 12.2411 16.2621 12.5001 16.1668C12.7514 16.0559 13.0302 16.0228 13.3006 16.0718C13.5709 16.1208 13.8203 16.2497 14.0167 16.4418L14.0667 16.4918C14.2215 16.6468 14.4054 16.7697 14.6077 16.8536C14.81 16.9375 15.0269 16.9806 15.2459 16.9806C15.4649 16.9806 15.6818 16.9375 15.8841 16.8536C16.0865 16.7697 16.2703 16.6468 16.4251 16.4918C16.58 16.337 16.703 16.1532 16.7868 15.9509C16.8707 15.7486 16.9139 15.5317 16.9139 15.3127C16.9139 15.0936 16.8707 14.8768 16.7868 14.6744C16.703 14.4721 16.58 14.2883 16.4251 14.1335L16.3751 14.0835C16.183 13.8871 16.0541 13.6376 16.0051 13.3673C15.9561 13.097 15.9892 12.8182 16.1001 12.5668C16.2057 12.3204 16.3811 12.1101 16.6047 11.9621C16.8283 11.814 17.0903 11.7346 17.3584 11.7335H17.5001C17.9421 11.7335 18.366 11.5579 18.6786 11.2453C18.9912 10.9328 19.1667 10.5089 19.1667 10.0668C19.1667 9.6248 18.9912 9.20088 18.6786 8.88832C18.366 8.57576 17.9421 8.40016 17.5001 8.40016H17.4251C17.1493 8.39371 16.8817 8.30443 16.6573 8.14392C16.4329 7.98341 16.262 7.75911 16.1667 7.50016C16.0558 7.24882 16.0227 6.97 16.0717 6.69967C16.1208 6.42934 16.2496 6.17989 16.4417 5.9835L16.4917 5.9335C16.6467 5.77871 16.7696 5.59489 16.8535 5.39256C16.9374 5.19023 16.9806 4.97335 16.9806 4.75433C16.9806 4.5353 16.9374 4.31843 16.8535 4.1161C16.7696 3.91377 16.6467 3.72995 16.4917 3.57516C16.337 3.4202 16.1531 3.29727 15.9508 3.2134C15.7485 3.12952 15.5316 3.08635 15.3126 3.08635C15.0936 3.08635 14.8767 3.12952 14.6743 3.2134C14.472 3.29727 14.2882 3.4202 14.1334 3.57516L14.0834 3.62516C13.887 3.81728 13.6376 3.94615 13.3672 3.99517C13.0969 4.04418 12.8181 4.01109 12.5667 3.90016H12.5001C12.2536 3.79453 12.0434 3.61913 11.8953 3.39555C11.7473 3.17198 11.6678 2.90998 11.6667 2.64183V2.50016C11.6667 2.05814 11.4912 1.63421 11.1786 1.32165C10.866 1.00909 10.4421 0.833496 10.0001 0.833496C9.55805 0.833496 9.13413 1.00909 8.82157 1.32165C8.50901 1.63421 8.33342 2.05814 8.33342 2.50016V2.57516C8.33235 2.84332 8.25289 3.10531 8.10483 3.32888C7.95676 3.55246 7.74656 3.72786 7.50008 3.8335C7.24874 3.94443 6.96992 3.97752 6.69959 3.9285C6.42926 3.87948 6.17982 3.75061 5.98342 3.5585L5.93342 3.5085C5.77863 3.35354 5.59481 3.2306 5.39248 3.14673C5.19015 3.06286 4.97328 3.01968 4.75425 3.01968C4.53522 3.01968 4.31835 3.06286 4.11602 3.14673C3.91369 3.2306 3.72987 3.35354 3.57508 3.5085C3.42012 3.66328 3.29719 3.8471 3.21332 4.04943C3.12944 4.25176 3.08627 4.46864 3.08627 4.68766C3.08627 4.90669 3.12944 5.12357 3.21332 5.3259C3.29719 5.52823 3.42012 5.71204 3.57508 5.86683L3.62508 5.91683C3.8172 6.11323 3.94607 6.36268 3.99509 6.633C4.0441 6.90333 4.01101 7.18215 3.90008 7.4335V7.50016C3.79445 7.74664 3.61905 7.95684 3.39547 8.10491C3.1719 8.25297 2.90991 8.33243 2.64175 8.3335H2.50008C2.05806 8.3335 1.63413 8.50909 1.32157 8.82165C1.00901 9.13421 0.833416 9.55813 0.833416 10.0002C0.833416 10.4422 1.00901 10.8661 1.32157 11.1787C1.63413 11.4912 2.05806 11.6668 2.50008 11.6668H2.57508C2.84324 11.6679 3.10523 11.7474 3.3288 11.8954C3.55238 12.0435 3.72778 12.2537 3.83342 12.5002V12.5002Z" stroke="white" stroke-width="2" stroke-linecap="round" stroke-linejoin="round" />
    </g>
    <defs>
        <clipPath id="clip0_2254_8848">
            <rect width="20" height="20" fill="white" transform="matrix(-1 0 0 1 20 0)" />
        </clipPath>
    </defs>
</svg>