<svg width="20" height="16" viewBox="0 0 20 16" fill="none">
    <path d="M14.9998 6.33333H13.9498C13.638 5.12583 12.9938 4.02998 12.0903 3.17032C11.1868 2.31066 10.0604 1.72165 8.83887 1.47023C7.61737 1.2188 6.34985 1.31503 5.18031 1.74799C4.01078 2.18095 2.98613 2.93327 2.22281 3.91948C1.45949 4.90569 0.988092 6.08623 0.862189 7.32696C0.736287 8.56769 0.960925 9.81886 1.51058 10.9383C2.06023 12.0577 2.91286 13.0006 3.97158 13.6596C5.03031 14.3187 6.25266 14.6676 7.49977 14.6667H14.9998C16.1048 14.6667 17.1646 14.2277 17.946 13.4463C18.7274 12.6649 19.1664 11.6051 19.1664 10.5C19.1664 9.39493 18.7274 8.33512 17.946 7.55372C17.1646 6.77231 16.1048 6.33333 14.9998 6.33333Z" stroke="currentColor" stroke-width="1.68" stroke-linecap="round" stroke-linejoin="round" />
</svg>
