<svg width="20" height="20" viewBox="0 0 20 20" fill="none" xmlns="http://www.w3.org/2000/svg">
    <g clip-path="url(#clip0_4098_648)">
        <path d="M7.50033 18.3333C7.96056 18.3333 8.33366 17.9602 8.33366 17.5C8.33366 17.0398 7.96056 16.6667 7.50033 16.6667C7.04009 16.6667 6.66699 17.0398 6.66699 17.5C6.66699 17.9602 7.04009 18.3333 7.50033 18.3333Z"
              stroke="currentColor" stroke-width="1.68" stroke-linecap="round" stroke-linejoin="round"/>
        <path d="M16.6663 18.3333C17.1266 18.3333 17.4997 17.9602 17.4997 17.5C17.4997 17.0398 17.1266 16.6667 16.6663 16.6667C16.2061 16.6667 15.833 17.0398 15.833 17.5C15.833 17.9602 16.2061 18.3333 16.6663 18.3333Z"
              stroke="currentColor" stroke-width="1.68" stroke-linecap="round" stroke-linejoin="round"/>
        <path d="M0.833008 0.833344H4.16634L6.39967 11.9917C6.47588 12.3753 6.6846 12.72 6.9893 12.9653C7.29399 13.2105 7.67526 13.3408 8.06634 13.3333H16.1663C16.5574 13.3408 16.9387 13.2105 17.2434 12.9653C17.5481 12.72 17.7568 12.3753 17.833 11.9917L19.1663 5.00001H4.99967"
              stroke="currentColor" stroke-width="1.68" stroke-linecap="round" stroke-linejoin="round"/>
    </g>
    <defs>
        <clipPath id="clip0_4098_648">
            <rect width="20" height="20" fill="none"/>
        </clipPath>
    </defs>
</svg>
