<svg width="18" height="19" viewBox="0 0 18 19" fill="none" xmlns="http://www.w3.org/2000/svg">
    <path fill-rule="evenodd" clip-rule="evenodd" d="M4.63414 5.16553H3.25699C3.88896 4.28257 4.95303 3.21739 6.32773 2.57609C7.92837 1.82938 9.99774 1.6284 12.4602 3.08202C14.6698 4.38636 15.5733 6.27282 15.7811 8.14401C15.994 10.0609 15.4692 11.9449 14.8225 13.075C14.2879 14.0092 13.1629 15.2641 11.5877 15.9229C10.067 16.5589 8.03599 16.6805 5.51857 15.2399C5.03922 14.9656 4.42826 15.1318 4.15396 15.6112C3.87966 16.0905 4.04588 16.7015 4.52523 16.9758C7.56263 18.7139 10.245 18.6523 12.3594 17.768C14.4194 16.9065 15.8513 15.304 16.5583 14.0684C17.4016 12.5947 18.0316 10.2883 17.7689 7.92325C17.5012 5.51249 16.2987 3.02543 13.4769 1.35971C10.4173 -0.446414 7.64903 -0.247235 5.48219 0.76361C3.99319 1.45824 2.81229 2.52193 2 3.51902V1.16553C2 0.613243 1.55228 0.165527 1 0.165527C0.447715 0.165527 0 0.613243 0 1.16553V6.16553C0 6.71781 0.447715 7.16553 1 7.16553H3.98449C3.9851 7.00314 3.99787 6.839 4.02329 6.67382C4.1122 6.09588 4.34187 5.59068 4.63414 5.16553Z" fill="currentColor" />
    <path d="M9.97456 7.70132C10.3803 8.07604 11.0129 8.05091 11.3877 7.64519C11.7624 7.23948 11.7372 6.60681 11.3315 6.23209L9.97456 7.70132ZM8.02542 10.6294C7.61972 10.2547 6.98706 10.2798 6.61232 10.6855C6.23759 11.0912 6.26269 11.7239 6.66839 12.0986L8.02542 10.6294ZM11.3315 6.23209C10.7212 5.66841 10.0794 5.33619 9.42954 5.21616C8.77971 5.09614 8.19062 5.20108 7.70695 5.40213C7.23148 5.59977 6.85073 5.89223 6.5825 6.17301C6.44826 6.31353 6.32797 6.46596 6.23429 6.62172C6.16871 6.73075 6.0163 6.99912 6.01632 7.3333L8.01632 7.33317C8.01634 7.57576 7.91558 7.70673 7.94815 7.65258C7.95261 7.64517 7.97696 7.60866 8.02868 7.55451C8.13239 7.44595 8.28886 7.32615 8.47462 7.24894C8.65216 7.17513 8.84828 7.14263 9.06631 7.1829C9.28427 7.22315 9.59302 7.34894 9.97456 7.70132L11.3315 6.23209ZM6.01632 7.3333C6.01632 7.24973 5.89209 8.07162 6.26922 8.74045C6.69577 9.49692 7.5613 9.95005 8.84361 10.1531L9.15634 8.17766C8.65119 8.09769 8.35624 7.98727 8.19185 7.89777C8.11198 7.85429 8.06692 7.81792 8.04324 7.79548C8.02042 7.77385 8.01294 7.76093 8.01136 7.75812C7.97525 7.69408 8.01635 7.7831 8.01632 7.33317L6.01632 7.3333ZM8.84361 10.1531C9.34876 10.233 9.64372 10.3434 9.80811 10.433C9.88799 10.4764 9.93306 10.5128 9.95674 10.5353C9.97957 10.5569 9.98705 10.5698 9.98864 10.5726C10.0247 10.6366 9.98369 10.5478 9.98366 10.9975L11.9837 10.9976C11.9837 11.0809 12.1079 10.2592 11.7308 9.59027C11.3042 8.8338 10.4387 8.38067 9.15634 8.17766L8.84361 10.1531ZM9.98366 10.9975C9.98368 10.755 10.0844 10.6241 10.0518 10.6782C10.0474 10.6857 10.023 10.7222 9.97128 10.7763C9.86756 10.8849 9.71108 11.0047 9.52533 11.0819C9.34779 11.1557 9.15168 11.1882 8.93366 11.1479C8.7157 11.1076 8.40696 10.9818 8.02542 10.6294L6.66839 12.0986C7.27868 12.6623 7.92044 12.9946 8.57034 13.1146C9.22017 13.2347 9.80927 13.1298 10.293 12.9287C10.7684 12.7311 11.1492 12.4386 11.4174 12.1578C11.5517 12.0173 11.672 11.8649 11.7657 11.7091C11.8313 11.6001 11.9836 11.3317 11.9837 10.9976L9.98366 10.9975Z" fill="currentColor" />
    <path d="M9 12.1654L9 13.1657" stroke="currentColor" stroke-width="2" stroke-linecap="round" stroke-linejoin="round" />
    <path d="M9.0249 5.16541L9.00012 6.16541" stroke="currentColor" stroke-width="2" stroke-linecap="round" stroke-linejoin="round" />
</svg>
    