<svg width="20" height="20" viewBox="0 0 20 20" fill="none" xmlns="http://www.w3.org/2000/svg">
  <path d="M9.3335 6V3.33333C9.3335 2.8029 9.12278 2.29419 8.74771 1.91912C8.37264 1.54405 7.86393 1.33333 7.3335 1.33333L4.66683 7.33333V14.6667H12.1868C12.5084 14.6703 12.8204 14.5576 13.0654 14.3493C13.3105 14.1411 13.4719 13.8513 13.5202 13.5333L14.4402 7.53333C14.4692 7.34224 14.4563 7.14712 14.4024 6.9615C14.3485 6.77588 14.2549 6.6042 14.1281 6.45834C14.0012 6.31249 13.8442 6.19596 13.6679 6.11681C13.4915 6.03767 13.3001 5.99781 13.1068 6H9.3335ZM4.66683 14.6667H2.66683C2.31321 14.6667 1.97407 14.5262 1.72402 14.2761C1.47397 14.0261 1.3335 13.687 1.3335 13.3333V8.66667C1.3335 8.31305 1.47397 7.97391 1.72402 7.72386C1.97407 7.47381 2.31321 7.33333 2.66683 7.33333H4.66683" fill="#62528F"/>
  <path d="M4.66683 14.6667H2.66683C2.31321 14.6667 1.97407 14.5262 1.72402 14.2761C1.47397 14.0261 1.3335 13.687 1.3335 13.3333V8.66667C1.3335 8.31305 1.47397 7.97391 1.72402 7.72386C1.97407 7.47381 2.31321 7.33333 2.66683 7.33333H4.66683M9.3335 6V3.33333C9.3335 2.8029 9.12278 2.29419 8.74771 1.91912C8.37264 1.54405 7.86393 1.33333 7.3335 1.33333L4.66683 7.33333V14.6667H12.1868C12.5084 14.6703 12.8204 14.5576 13.0654 14.3493C13.3105 14.1411 13.4719 13.8513 13.5202 13.5333L14.4402 7.53333C14.4692 7.34224 14.4563 7.14712 14.4024 6.9615C14.3485 6.77588 14.2549 6.6042 14.1281 6.45834C14.0012 6.31249 13.8442 6.19596 13.6679 6.11681C13.4915 6.03767 13.3001 5.99781 13.1068 6H9.3335Z" stroke="#352466" stroke-width="1.68" stroke-linecap="round" stroke-linejoin="round"/>
</svg>
