<svg width="20" height="20" viewBox="0 0 20 20" fill="none" xmlns="http://www.w3.org/2000/svg">
<path d="M14.1667 1.66667H16.3917C16.8633 1.65833 17.3216 1.82345 17.6795 2.13068C18.0374 2.43792 18.2701 2.86588 18.3333 3.33333V9.16667C18.2701 9.63412 18.0374 10.0621 17.6795 10.3693C17.3216 10.6766 16.8633 10.8417 16.3917 10.8333H14.1667M8.33333 12.5V15.8333C8.33333 16.4964 8.59672 17.1323 9.06556 17.6011C9.5344 18.0699 10.1703 18.3333 10.8333 18.3333L14.1667 10.8333V1.66667H4.76666C4.36472 1.66212 3.97468 1.803 3.66841 2.06333C3.36213 2.32366 3.16026 2.68591 3.09999 3.08333L1.94999 10.5833C1.91374 10.8222 1.92985 11.0661 1.99721 11.2981C2.06457 11.5302 2.18158 11.7448 2.34011 11.9271C2.49865 12.1094 2.69493 12.2551 2.91535 12.354C3.13577 12.4529 3.37507 12.5027 3.61666 12.5H8.33333Z" stroke="black" stroke-width="1.68" stroke-linecap="round" stroke-linejoin="round"/>
</svg>
