<svg width="100" height="41" viewBox="0 0 100 41" fill="none" xmlns="http://www.w3.org/2000/svg">
<ellipse cx="18" cy="22.2877" rx="18" ry="18.1364" fill="url(#paint0_linear_1256_20357)"/>
<ellipse cx="18" cy="22.2877" rx="18" ry="18.1364" fill="url(#paint1_linear_1256_20357)"/>
<ellipse cx="24" cy="18.2575" rx="18" ry="18.1364" fill="url(#paint2_linear_1256_20357)"/>
<path d="M50.9148 30.3483C50.3049 30.3483 50 30.007 50 29.3243V11.7942C50 11.1115 50.3049 10.7702 50.9148 10.7702H53.0318C53.5545 10.7702 53.8159 11.1115 53.8159 11.7942V26.9624H61.4345C62.0879 26.9624 62.4146 27.2582 62.4146 27.8498V29.4609C62.4146 30.0525 62.0879 30.3483 61.4345 30.3483H50.9148Z" fill="#D7C9FF"/>
<path d="M65.6555 30.3483C65.1327 30.3483 64.8714 30.0752 64.8714 29.5291V16.832C64.8714 16.2859 65.1327 16.0129 65.6555 16.0129H67.7463C68.2691 16.0129 68.5304 16.2859 68.5304 16.832V29.5291C68.5304 30.0752 68.2691 30.3483 67.7463 30.3483H65.6555ZM65.6555 13.9103C65.1327 13.9103 64.8714 13.6373 64.8714 13.0912V11.3436C64.8714 10.7975 65.1327 10.5244 65.6555 10.5244H67.7463C68.2691 10.5244 68.5304 10.7975 68.5304 11.3436V13.0912C68.5304 13.6373 68.2691 13.9103 67.7463 13.9103H65.6555Z" fill="#D7C9FF"/>
<path d="M72.869 30.3483C72.3463 30.3483 72.0849 30.0752 72.0849 29.5291V16.832C72.0849 16.2859 72.3463 16.0129 72.869 16.0129H74.9337C75.4565 16.0129 75.7178 16.2859 75.7178 16.832V17.6239H75.7701C76.1708 16.9048 76.6805 16.4133 77.299 16.1494C77.9176 15.8763 78.6625 15.7398 79.5337 15.7398C80.8927 15.7398 82.0166 16.1858 82.9052 17.0778C83.7938 17.9698 84.2381 19.599 84.2381 21.9655V29.5291C84.2381 30.0752 83.9768 30.3483 83.4541 30.3483H81.3632C80.8405 30.3483 80.5791 30.0752 80.5791 29.5291V22.9485C80.5791 20.9643 80.4484 19.7128 80.1871 19.194C79.9257 18.6752 79.3638 18.4158 78.5013 18.4158C77.5865 18.4158 76.8983 18.7889 76.4366 19.5353C75.9748 20.2725 75.7439 21.8107 75.7439 24.1499V29.5291C75.7439 30.0752 75.4826 30.3483 74.9599 30.3483H72.869Z" fill="#D7C9FF"/>
<path d="M88.5506 30.3483C88.0279 30.3483 87.7665 30.0752 87.7665 29.5291V11.0159C87.7665 10.4698 88.0279 10.1968 88.5506 10.1968H90.6415C91.1642 10.1968 91.4255 10.4698 91.4255 11.0159V21.0507C91.4255 21.4148 91.4081 21.7789 91.3733 22.143H91.4255L95.5681 16.5726C95.8469 16.1995 96.1866 16.0129 96.5874 16.0129H98.7306C99.5321 16.0129 99.6671 16.3496 99.1357 17.0232L95.1891 22.0064L99.7629 29.338C100.181 30.0115 100.046 30.3483 99.3578 30.3483H97.1232C96.6876 30.3483 96.3304 30.1116 96.0516 29.6383L93.0852 24.6551L91.4255 26.744V29.5291C91.4255 30.0752 91.1642 30.3483 90.6415 30.3483H88.5506Z" fill="#D7C9FF"/>
<defs>
<linearGradient id="paint0_linear_1256_20357" x1="38.9508" y1="1.47551" x2="-14.7868" y2="45.6746" gradientUnits="userSpaceOnUse">
<stop stop-color="#D7C9FF" stop-opacity="0.74"/>
<stop offset="1" stop-color="#D7C9FF" stop-opacity="0.3"/>
</linearGradient>
<linearGradient id="paint1_linear_1256_20357" x1="38.9508" y1="1.47551" x2="-14.7868" y2="45.6746" gradientUnits="userSpaceOnUse">
<stop stop-color="#D7C9FF" stop-opacity="0.74"/>
<stop offset="1" stop-color="#C2ACFF" stop-opacity="0.33"/>
</linearGradient>
<linearGradient id="paint2_linear_1256_20357" x1="44.9508" y1="-2.55476" x2="-8.7868" y2="41.6443" gradientUnits="userSpaceOnUse">
<stop stop-color="#D7C9FF"/>
<stop offset="1" stop-color="#FCFBFF" stop-opacity="0.31"/>
</linearGradient>
</defs>
</svg>
