<svg width="100" height="41" viewBox="0 0 100 41" fill="none" xmlns="http://www.w3.org/2000/svg">
<ellipse cx="18" cy="22.7423" rx="18" ry="18.1364" fill="url(#paint0_linear_1256_20358)"/>
<ellipse cx="18" cy="22.7423" rx="18" ry="18.1364" fill="url(#paint1_linear_1256_20358)"/>
<ellipse cx="24" cy="18.712" rx="18" ry="18.1364" fill="url(#paint2_linear_1256_20358)"/>
<path d="M50.9148 30.8029C50.3049 30.8029 50 30.4616 50 29.7789V12.2487C50 11.5661 50.3049 11.2248 50.9148 11.2248H53.0318C53.5545 11.2248 53.8159 11.5661 53.8159 12.2487V27.417H61.4345C62.0879 27.417 62.4146 27.7128 62.4146 28.3044V29.9155C62.4146 30.5071 62.0879 30.8029 61.4345 30.8029H50.9148Z" fill="#352466"/>
<path d="M65.6555 30.8029C65.1327 30.8029 64.8714 30.5298 64.8714 29.9837V17.2866C64.8714 16.7405 65.1327 16.4675 65.6555 16.4675H67.7463C68.2691 16.4675 68.5304 16.7405 68.5304 17.2866V29.9837C68.5304 30.5298 68.2691 30.8029 67.7463 30.8029H65.6555ZM65.6555 14.3649C65.1327 14.3649 64.8714 14.0919 64.8714 13.5458V11.7982C64.8714 11.2521 65.1327 10.979 65.6555 10.979H67.7463C68.2691 10.979 68.5304 11.2521 68.5304 11.7982V13.5458C68.5304 14.0919 68.2691 14.3649 67.7463 14.3649H65.6555Z" fill="#352466"/>
<path d="M72.869 30.8029C72.3463 30.8029 72.0849 30.5298 72.0849 29.9837V17.2866C72.0849 16.7405 72.3463 16.4675 72.869 16.4675H74.9337C75.4565 16.4675 75.7178 16.7405 75.7178 17.2866V18.0785H75.7701C76.1708 17.3594 76.6805 16.8679 77.299 16.604C77.9176 16.3309 78.6625 16.1944 79.5337 16.1944C80.8927 16.1944 82.0166 16.6404 82.9052 17.5324C83.7938 18.4244 84.2381 20.0536 84.2381 22.4201V29.9837C84.2381 30.5298 83.9768 30.8029 83.4541 30.8029H81.3632C80.8405 30.8029 80.5791 30.5298 80.5791 29.9837V23.4031C80.5791 21.4189 80.4484 20.1674 80.1871 19.6486C79.9257 19.1297 79.3638 18.8703 78.5013 18.8703C77.5865 18.8703 76.8983 19.2435 76.4366 19.9899C75.9748 20.7271 75.7439 22.2653 75.7439 24.6045V29.9837C75.7439 30.5298 75.4826 30.8029 74.9599 30.8029H72.869Z" fill="#352466"/>
<path d="M88.5506 30.8029C88.0279 30.8029 87.7665 30.5298 87.7665 29.9837V11.4705C87.7665 10.9244 88.0279 10.6514 88.5506 10.6514H90.6415C91.1642 10.6514 91.4255 10.9244 91.4255 11.4705V21.5053C91.4255 21.8694 91.4081 22.2335 91.3733 22.5976H91.4255L95.5681 17.0272C95.8469 16.654 96.1866 16.4675 96.5874 16.4675H98.7306C99.5321 16.4675 99.6671 16.8042 99.1357 17.4778L95.1891 22.461L99.7629 29.7926C100.181 30.4661 100.046 30.8029 99.3578 30.8029H97.1232C96.6876 30.8029 96.3304 30.5662 96.0516 30.0929L93.0852 25.1097L91.4255 27.1985V29.9837C91.4255 30.5298 91.1642 30.8029 90.6415 30.8029H88.5506Z" fill="#352466"/>
<defs>
<linearGradient id="paint0_linear_1256_20358" x1="38.9508" y1="1.9301" x2="-14.7868" y2="46.1292" gradientUnits="userSpaceOnUse">
<stop stop-color="#9E86E4"/>
<stop offset="1" stop-color="#09080B" stop-opacity="0.43"/>
</linearGradient>
<linearGradient id="paint1_linear_1256_20358" x1="38.9508" y1="1.9301" x2="-14.7868" y2="46.1292" gradientUnits="userSpaceOnUse">
<stop stop-color="#9E86E4"/>
<stop offset="1" stop-color="#09080B" stop-opacity="0.43"/>
</linearGradient>
<linearGradient id="paint2_linear_1256_20358" x1="44.9508" y1="-2.10017" x2="-8.7868" y2="42.0989" gradientUnits="userSpaceOnUse">
<stop stop-color="#9E86E4"/>
<stop offset="1" stop-color="#09080B" stop-opacity="0.43"/>
</linearGradient>
</defs>
</svg>
